# Blender 4.0.0
# www.blender.org
mtllib tun.mtl
g tower.031_Cube.053
v -1.003919 0.844445 6.627564
v -1.003919 0.969044 6.679174
v -2.687151 0.844445 6.627563
v -1.003919 0.719846 6.679174
v -2.687151 0.719846 6.679174
v -1.003919 0.668236 6.803773
v -2.687151 0.668236 6.803773
v -1.003919 0.719846 6.928372
v -2.687151 0.719846 6.928372
v -1.003919 0.844445 6.979983
v -2.687151 0.844445 6.979982
v -2.026291 0.814228 6.949050
v -1.116464 0.953022 7.057240
v -1.003919 1.020655 6.803773
v -2.687151 1.020655 6.803773
v -1.116464 1.064263 6.982911
v -2.026291 1.016242 6.807198
v -1.874257 1.064263 6.982911
v -1.874257 0.953022 7.057240
v -2.687151 0.969044 6.679174
v 3.446442 0.739438 6.817446
v 3.446442 0.739438 6.672690
v 3.454778 0.768143 6.672690
v 3.446442 0.950792 6.817446
v 3.037488 0.727548 6.817446
v 3.426317 0.727548 6.672690
v 3.037488 0.727548 6.672690
v 3.445910 0.699233 6.672690
v 3.445910 0.699233 6.926661
v 3.470580 0.713283 6.672690
v 3.037488 0.699233 6.672690
v 3.037488 0.699233 6.926661
v 3.037488 0.977076 6.926661
v 3.037488 0.977076 6.672690
v 3.037488 0.962682 6.817446
v 3.445910 0.977076 6.926661
v 3.445910 0.977076 6.672690
v 3.470580 0.963027 6.926661
v 3.470580 0.963027 6.672690
v 3.480799 0.929108 6.926661
v 3.470580 0.713283 6.926661
v 3.480799 0.747201 6.926661
v 3.480799 0.747201 6.672690
v 3.480799 0.929108 6.672690
v 3.454778 0.922088 6.672690
v 3.446442 0.950792 6.672690
v 3.426317 0.962682 6.672690
v 3.037488 0.962682 6.672690
v 0.737535 0.779778 6.647655
v -0.041437 0.779778 6.647655
v 0.737535 0.688326 6.739107
v 0.737535 0.909111 6.647655
v 0.737535 1.000563 6.739107
v -0.041437 0.909111 6.647655
v -0.041437 1.000563 6.739107
v -0.041437 1.000563 6.868440
v 0.737535 1.000563 6.868440
v -0.041437 0.909111 6.959891
v 0.737535 0.909111 6.959891
v -0.041437 0.779778 6.959891
v 0.737535 0.779778 6.959891
v -0.041437 0.688326 6.868440
v 0.737535 0.688326 6.868440
v -0.041437 0.688326 6.739107
v 3.115143 0.809011 6.718227
v -1.054095 0.809011 6.718227
v 3.115143 0.758899 6.768339
v 3.115143 0.879879 6.718227
v 3.115143 0.929991 6.768339
v -1.054095 0.879879 6.718227
v -1.054095 0.929991 6.768339
v -1.054095 0.929991 6.839207
v 3.115143 0.929991 6.839208
v -1.054095 0.879879 6.889319
v 3.115143 0.879879 6.889319
v -1.054095 0.809011 6.889319
v 3.115143 0.809011 6.889319
v -1.054095 0.758899 6.839207
v 3.115143 0.758899 6.839208
v -1.054095 0.758899 6.768339
v 3.036982 0.763277 6.651872
v 3.489102 0.763277 6.651872
v 3.036982 0.821025 6.594123
v 3.036982 0.763277 6.733540
v 3.489102 0.763277 6.733540
v 3.036982 0.821025 6.791288
v 3.489102 0.821025 6.791288
v 3.036982 0.902694 6.791288
v 3.489102 0.902693 6.791288
v 3.036982 0.960442 6.733540
v 3.489102 0.960441 6.733540
v 3.036982 0.960442 6.651872
v 3.489102 0.960441 6.651872
v 3.036982 0.902694 6.594123
v 3.489102 0.902693 6.594123
v 3.489102 0.821025 6.594124
v 3.282887 0.729844 6.747371
v 3.282887 0.983241 6.747371
v 3.282887 0.729844 6.574102
v 3.282887 0.983241 6.574102
v 3.316315 0.729844 6.574102
v 3.316315 0.983241 6.574102
v 3.316315 0.729844 6.747371
v 3.316315 0.983241 6.747371
v 3.105722 0.729844 6.747371
v 3.105722 0.983241 6.747371
v 3.105722 0.729844 6.574102
v 3.105722 0.983241 6.574102
v 3.139150 0.729844 6.574102
v 3.139150 0.983241 6.574102
v 3.139150 0.729844 6.747371
v 3.139150 0.983241 6.747371
vn -0.0000 0.7071 -0.7071
vn -0.0000 -0.0000 -1.0000
vn 1.0000 -0.0000 -0.0000
vn -0.0000 -0.7071 -0.7071
vn -0.0000 -1.0000 -0.0000
vn -0.0000 -0.7071 0.7071
vn -0.0000 0.1951 0.9808
vn -0.0000 0.9808 0.1951
vn -0.5859 0.0123 0.8103
vn 0.6341 0.0174 0.7730
vn 0.3435 0.0588 0.9373
vn -0.3122 0.0437 0.9490
vn 0.5168 0.8428 0.1501
vn 0.3447 0.8576 0.3817
vn -0.5630 0.7749 0.2873
vn -0.3123 0.8622 0.3988
vn -0.2464 0.9689 -0.0227
vn -0.5751 0.5589 -0.5974
vn -0.7901 0.6130 -0.0000
vn -0.9919 0.1229 -0.0327
vn -0.5751 -0.5589 -0.5974
vn -0.9919 -0.1229 -0.0327
vn -0.0149 0.9991 -0.0400
vn 0.2560 -0.9667 -0.0000
vn 0.7820 -0.6232 -0.0000
vn -1.0000 -0.0000 -0.0000
vn -0.0000 -0.0000 1.0000
vn 0.2560 0.9667 -0.0000
vn -0.0000 1.0000 -0.0000
vn 0.7820 0.6232 -0.0000
vn 0.9893 0.1458 -0.0000
vn 0.9893 -0.1458 -0.0000
vn -0.7901 -0.6130 -0.0000
vn -0.2464 -0.9689 -0.0227
vn -0.0149 -0.9991 -0.0400
vn -0.0000 -0.3827 -0.9239
vn -0.0000 -0.9239 -0.3827
vn -0.0000 0.3827 -0.9239
vn -0.0000 0.9239 -0.3827
vn -0.0000 0.9239 0.3827
vn -0.0000 0.3827 0.9239
vn -0.0000 -0.3827 0.9239
vn -0.0000 -0.9239 0.3827
vn -0.7071 -0.0000 -0.7071
vn 0.7071 -0.0000 -0.7071
vt 0.345094 0.835402
vt 0.503003 0.835402
vt 0.503003 0.848054
vt 0.345094 0.848054
vt 0.351374 0.959044
vt 0.360320 0.950098
vt 0.372972 0.950098
vt 0.381918 0.959044
vt 0.381918 0.971696
vt 0.372972 0.980643
vt 0.360320 0.980643
vt 0.503003 0.860706
vt 0.345094 0.860706
vt 0.503003 0.873358
vt 0.345094 0.873358
vt 0.345094 0.774068
vt 0.503003 0.774068
vt 0.503003 0.786720
vt 0.345094 0.786720
vt 0.503002 0.799372
vt 0.345094 0.799372
vt 0.503002 0.822750
vt 0.345094 0.822750
vt 0.393136 0.941444
vt 0.495288 0.941444
vt 0.475294 0.954362
vt 0.418797 0.954685
vt 0.497770 0.983908
vt 0.476614 0.965641
vt 0.392820 0.980682
vt 0.417456 0.966324
vt 0.101215 0.917905
vt 0.087654 0.915601
vt 0.101233 0.915713
vt 0.101256 0.912909
vt 0.087654 0.895774
vt 0.101256 0.898467
vt 0.041743 0.961112
vt 0.080108 0.962227
vt 0.080109 0.982055
vt 0.041743 0.983171
vt 0.123080 0.979102
vt 0.084714 0.978017
vt 0.087018 0.964455
vt 0.123479 0.965527
vt 0.088120 0.985080
vt 0.088120 0.982424
vt 0.124597 0.982424
vt 0.126435 0.985080
vt 0.126485 0.981308
vt 0.128750 0.983762
vt 0.119582 0.952829
vt 0.081267 0.952829
vt 0.081267 0.929004
vt 0.119582 0.929003
vt 0.078603 0.952829
vt 0.078603 0.929004
vt 0.086102 0.886364
vt 0.120984 0.886364
vt 0.105984 0.890253
vt 0.086102 0.890253
vt 0.135200 0.957605
vt 0.173515 0.957605
vt 0.173515 0.983670
vt 0.135200 0.983670
vt 0.120984 0.924525
vt 0.105984 0.922548
vt 0.052228 0.952829
vt 0.013913 0.952829
vt 0.013913 0.929004
vt 0.052228 0.929004
vt 0.086102 0.924525
vt 0.086102 0.922548
vt 0.054891 0.929004
vt 0.054891 0.952829
vt 0.175829 0.958923
vt 0.175829 0.982352
vt 0.058215 0.929004
vt 0.058215 0.952829
vt 0.176788 0.962105
vt 0.176788 0.979170
vt 0.075280 0.952829
vt 0.075280 0.929004
vt 0.127267 0.978615
vt 0.129708 0.980580
vt 0.127267 0.964174
vt 0.129708 0.963515
vt 0.126485 0.961481
vt 0.128750 0.960333
vt 0.101233 0.895662
vt 0.124597 0.960365
vt 0.126436 0.959015
vt 0.101215 0.893470
vt 0.088121 0.960365
vt 0.088121 0.959015
vt 0.087018 0.964455
vt 0.084714 0.978016
vt 0.123080 0.979102
vt 0.123479 0.965528
vt 0.251534 0.849092
vt 0.324611 0.849092
vt 0.324611 0.861225
vt 0.251534 0.861225
vt 0.324611 0.836959
vt 0.251534 0.836959
vt 0.268019 0.980643
vt 0.255886 0.980643
vt 0.247307 0.972063
vt 0.247307 0.959930
vt 0.255886 0.951351
vt 0.268019 0.951351
vt 0.276599 0.959930
vt 0.276599 0.972063
vt 0.251534 0.824826
vt 0.324611 0.824826
vt 0.286008 0.972063
vt 0.286008 0.959930
vt 0.294588 0.951351
vt 0.306721 0.951351
vt 0.315300 0.959930
vt 0.315300 0.972063
vt 0.306721 0.980643
vt 0.294588 0.980643
vt 0.251534 0.812693
vt 0.324611 0.812693
vt 0.251534 0.800560
vt 0.324611 0.800560
vt 0.251534 0.788427
vt 0.324611 0.788427
vt 0.251534 0.776293
vt 0.324611 0.776293
vt 0.324611 0.873358
vt 0.251534 0.873358
vt 0.127360 0.919693
vt 0.513335 0.919693
vt 0.513338 0.926430
vt 0.127363 0.926430
vt 0.513338 0.912956
vt 0.127363 0.912956
vt 0.127360 0.906219
vt 0.513335 0.906219
vt 0.127356 0.899482
vt 0.513331 0.899482
vt 0.127353 0.892744
vt 0.513328 0.892744
vt 0.127351 0.886007
vt 0.513325 0.886007
vt 0.127347 0.879270
vt 0.513322 0.879270
vt 0.513341 0.933167
vt 0.127366 0.933168
vt 0.186229 0.858035
vt 0.228643 0.858035
vt 0.228643 0.865697
vt 0.186229 0.865697
vt 0.228643 0.873358
vt 0.186229 0.873358
vt 0.213087 0.966694
vt 0.213087 0.974356
vt 0.207669 0.979773
vt 0.200008 0.979773
vt 0.194590 0.974356
vt 0.194590 0.966694
vt 0.200008 0.961277
vt 0.207669 0.961277
vt 0.186229 0.812066
vt 0.228643 0.812066
vt 0.228643 0.819727
vt 0.186229 0.819727
vt 0.228643 0.827389
vt 0.186229 0.827389
vt 0.228643 0.835051
vt 0.186229 0.835051
vt 0.228643 0.842712
vt 0.186229 0.842712
vt 0.228643 0.850374
vt 0.186229 0.850374
vt 0.220100 0.938084
vt 0.243872 0.938084
vt 0.243872 0.954339
vt 0.220100 0.954339
vt 0.190456 0.938084
vt 0.190456 0.961856
vt 0.187320 0.961856
vt 0.187320 0.938084
vt 0.193001 0.938084
vt 0.216773 0.938084
vt 0.216773 0.954339
vt 0.193001 0.954339
vt 0.178587 0.954237
vt 0.154816 0.954237
vt 0.154816 0.937982
vt 0.178587 0.937982
vt 0.183776 0.938084
vt 0.183776 0.961856
vt 0.180640 0.961856
vt 0.180640 0.938084
vt 0.128541 0.937553
vt 0.152313 0.937553
vt 0.152313 0.953808
vt 0.128541 0.953808
s 1
g tower.031_textures.002
usemtl textures.002
f 20/1/1 2/2/1 1/3/2 3/4/2
f 10/5/3 8/6/3 6/7/3 4/8/3 1/9/3 2/10/3 14/11/3
f 3/4/2 1/3/2 4/12/4 5/13/4
f 5/13/4 4/12/4 6/14/5 7/15/5
f 7/16/5 6/17/5 8/18/6 9/19/6
f 9/19/6 8/18/6 10/20/7 11/21/7
f 11/21/7 10/20/7 14/22/8 15/23/8
f 12/24/9 10/25/10 13/26/11 19/27/12
f 14/28/13 16/29/14 13/26/11 10/25/10
f 15/23/8 14/22/8 2/2/1 20/1/1
f 17/30/15 18/31/16 16/29/14 14/28/13
f 12/24/9 19/27/12 18/31/16 17/30/15
f 13/26/11 16/29/14 18/31/16 19/27/12
f 26/32/17 21/33/18 22/34/19
f 22/34/19 21/33/18 23/35/20
f 24/36/21 45/37/22 23/35/20 21/33/18
f 35/38/2 24/39/21 21/40/18 25/41/2
f 25/42/23 21/43/18 26/44/17 27/45/23
f 31/46/2 27/47/2 26/48/2 28/49/2
f 28/49/2 26/48/2 22/50/2 30/51/2
f 31/52/5 28/53/24 29/54/24 32/55/5
f 29/54/24 28/53/24 30/56/25 41/57/25
f 31/58/26 32/59/26 25/60/26 27/61/26
f 32/62/27 29/63/27 36/64/27 33/65/27
f 32/59/26 33/66/26 35/67/26 25/60/26
f 37/68/28 34/69/29 33/70/29 36/71/28
f 33/66/26 34/72/26 48/73/26 35/67/26
f 37/68/28 36/71/28 38/74/30 39/75/30
f 29/63/27 41/76/27 38/77/27 36/64/27
f 39/75/30 38/74/30 40/78/31 44/79/31
f 41/76/27 42/80/27 40/81/27 38/77/27
f 41/57/25 30/56/25 43/82/32 42/83/32
f 43/82/32 44/79/31 40/78/31 42/83/32
f 30/51/2 22/50/2 23/84/2 43/85/2
f 43/85/2 23/84/2 45/86/2 44/87/2
f 44/87/2 45/86/2 46/88/2 39/89/2
f 46/90/33 45/37/22 24/36/21
f 39/89/2 46/88/2 47/91/2 37/92/2
f 46/90/33 24/36/21 47/93/34
f 37/92/2 47/91/2 48/94/2 34/95/2
f 47/96/34 24/97/21 35/98/35 48/99/35
f 50/100/36 49/101/36 51/102/37 64/103/37
f 52/104/38 49/101/36 50/100/36 54/105/38
f 53/106/3 57/107/3 59/108/3 61/109/3 63/110/3 51/111/3 49/112/3 52/113/3
f 55/114/39 53/115/39 52/104/38 54/105/38
f 55/116/26 54/117/26 50/118/26 64/119/26 62/120/26 60/121/26 58/122/26 56/123/26
f 56/124/40 57/125/40 53/115/39 55/114/39
f 58/126/41 59/127/41 57/125/40 56/124/40
f 60/128/42 61/129/42 59/127/41 58/126/41
f 62/130/43 63/131/43 61/129/42 60/128/42
f 64/103/37 51/102/37 63/132/43 62/133/43
f 66/134/36 65/135/36 67/136/37 80/137/37
f 68/138/38 65/135/36 66/134/36 70/139/38
f 71/140/39 69/141/39 68/138/38 70/139/38
f 72/142/40 73/143/40 69/141/39 71/140/39
f 74/144/41 75/145/41 73/143/40 72/142/40
f 76/146/42 77/147/42 75/145/41 74/144/41
f 78/148/43 79/149/43 77/147/42 76/146/42
f 80/137/37 67/136/37 79/150/43 78/151/43
f 83/152/36 96/153/36 82/154/37 81/155/37
f 81/155/37 82/154/37 85/156/43 84/157/43
f 83/158/26 81/159/26 84/160/26 86/161/26 88/162/26 90/163/26 92/164/26 94/165/26
f 84/166/43 85/167/43 87/168/42 86/169/42
f 86/169/42 87/168/42 89/170/41 88/171/41
f 88/171/41 89/170/41 91/172/40 90/173/40
f 90/173/40 91/172/40 93/174/39 92/175/39
f 92/175/39 93/174/39 95/176/38 94/177/38
f 95/176/38 96/153/36 83/152/36 94/177/38
f 97/178/26 98/179/26 100/180/44 99/181/44
f 99/182/44 100/183/44 102/184/45 101/185/45
f 101/186/45 102/187/45 104/188/3 103/189/3
f 105/190/26 106/191/26 108/192/44 107/193/44
f 107/194/44 108/195/44 110/196/45 109/197/45
f 109/198/45 110/199/45 112/200/3 111/201/3
