# Blender 4.0.0
# www.blender.org
mtllib wheel217.mtl
g wheel_low_Cylinder.002
v -0.607726 1.634260 -1.581106
v -0.192124 1.879041 -1.581106
v 0.287984 1.832789 -1.581106
v 0.649213 1.513170 -1.581106
v 0.753586 1.042267 -1.581106
v 0.561235 0.599951 -1.581106
v 0.145634 0.355169 -1.581106
v -0.695703 0.721041 -1.581106
v -0.522907 1.590050 -2.173434
v -0.607726 1.634260 -2.084296
v -0.149254 1.802484 -2.173434
v -0.192124 1.879041 -2.084296
v 0.277902 1.754718 -2.173434
v 0.287984 1.832789 -2.084296
v 0.595403 1.464999 -2.173434
v 0.649213 1.513170 -2.084296
v 0.681973 1.043989 -2.173434
v 0.753586 1.042267 -2.084296
v 0.504547 0.652499 -2.173434
v 0.561235 0.599951 -2.084296
v 0.145634 0.355169 -2.084296
v -0.613762 0.777551 -2.173434
v -0.695703 0.721041 -2.084296
v -0.800076 1.191944 -1.581106
v -0.800076 1.191944 -2.084296
v -0.700333 1.198561 -2.173434
v -0.334474 0.401422 -1.581106
v -0.334474 0.401422 -2.084296
v -0.296261 0.487832 -2.173434
v 0.140563 0.465412 -2.158500
v -0.415941 1.004711 -1.615397
v -0.329434 1.029471 -1.478276
v -0.316929 1.400994 -1.615397
v -0.122257 0.720823 -1.615397
v -0.100445 0.808121 -1.478276
v 0.270439 0.833218 -1.615397
v 0.205743 0.895756 -1.478276
v 0.369451 1.229500 -1.615397
v 0.282943 1.204740 -1.478276
v 0.075767 1.513386 -1.615397
v 0.053955 1.426089 -1.478276
v -0.252233 1.338456 -1.478276
v 0.172949 1.204414 -1.564676
v 0.172949 1.204414 -1.294551
v -0.248580 1.083768 -1.564676
v 0.189433 1.146821 -1.564676
v 0.189433 1.146821 -1.294551
v -0.232096 1.026175 -1.564676
v -0.232096 1.026175 -1.294551
v -0.154284 1.048445 -1.220393
v -0.248580 1.083768 -1.294551
v -0.170768 1.106038 -1.220393
v 0.095137 1.182143 -1.220393
v 0.111621 1.124550 -1.220393
v -0.176262 1.073311 -1.551696
v -0.176262 1.073311 -1.182700
v -0.067040 1.270123 -1.551696
v 0.020550 0.964089 -1.551696
v 0.020550 0.964089 -1.182700
v 0.129771 1.160901 -1.551696
v 0.129771 1.160901 -1.182700
v -0.067040 1.270123 -1.182700
vn 0.3052 0.7018 0.6437
vn 0.6594 0.3884 0.6437
vn 0.8151 0.4889 -0.3108
vn 0.3668 0.8717 -0.3250
vn 0.9458 -0.0887 -0.3123
vn 0.7617 -0.0734 0.6437
vn 0.5731 -0.5071 0.6437
vn 0.6998 -0.6220 -0.3514
vn -0.3660 -0.8426 -0.3951
vn -0.3052 -0.7018 0.6437
vn -0.6594 -0.3884 0.6437
vn -0.7957 -0.4716 -0.3800
vn 0.1656 -0.7471 0.6437
vn 0.1926 -0.9003 -0.3903
vn -0.5731 0.5071 0.6437
vn -0.1656 0.7471 0.6437
vn -0.2144 0.9130 -0.3471
vn -0.7030 0.6091 -0.3672
vn -0.0755 0.4538 -0.8879
vn -0.3122 0.3023 -0.9006
vn 0.2158 0.4348 -0.8743
vn 0.4399 0.2378 -0.8660
vn 0.4949 -0.0566 -0.8671
vn 0.3402 -0.3031 -0.8901
vn 0.0984 -0.3884 -0.9162
vn -0.1587 -0.3706 -0.9151
vn -0.3621 -0.2073 -0.9088
vn -0.4153 0.0523 -0.9082
vn -0.9217 0.0825 -0.3790
vn -0.7617 0.0734 0.6437
vn -0.2027 -0.8111 0.5486
vn -0.1403 -0.5616 0.8154
vn -0.5565 -0.1593 0.8154
vn -0.8038 -0.2301 0.5486
vn -0.4162 0.4023 0.8154
vn -0.6011 0.5811 0.5486
vn 0.6011 -0.5811 0.5486
vn 0.4162 -0.4023 0.8154
vn 0.8038 0.2301 0.5486
vn 0.5565 0.1593 0.8154
vn 0.2027 0.8111 0.5486
vn 0.1403 0.5616 0.8154
vn 0.9614 0.2752 -0.0000
vn -0.2752 0.9614 -0.0000
vn 0.2752 -0.9614 -0.0000
vn -0.9614 -0.2752 -0.0000
vn -0.6495 -0.1859 0.7373
vn 0.6495 0.1859 0.7373
vt 0.994645 0.233715
vt 0.994645 0.284603
vt 0.953436 0.270466
vt 0.955595 0.244176
vt 0.936537 0.289922
vt 0.962580 0.330145
vt 0.908629 0.339212
vt 0.911560 0.297090
vt 0.873332 0.265275
vt 0.831972 0.273322
vt 0.839755 0.224808
vt 0.874577 0.238951
vt 0.856796 0.322607
vt 0.887734 0.286687
vt 0.916974 0.169376
vt 0.970077 0.185849
vt 0.940698 0.222864
vt 0.917045 0.213024
vt 0.937508 0.228828
vt 0.917689 0.220223
vt 0.949399 0.246994
vt 0.947247 0.268705
vt 0.932902 0.284833
vt 0.912090 0.290367
vt 0.892784 0.281662
vt 0.880399 0.263373
vt 0.881801 0.241351
vt 0.896440 0.224965
vt 0.891849 0.219136
vt 0.868165 0.186148
vt 0.994321 0.384030
vt 0.994321 0.411941
vt 0.977915 0.434522
vt 0.951370 0.443146
vt 0.924824 0.434522
vt 0.908419 0.411941
vt 0.908419 0.384030
vt 0.924824 0.361449
vt 0.951370 0.352824
vt 0.977915 0.361449
vt 0.018331 0.849117
vt 0.023914 0.840176
vt 0.040402 0.839671
vt 0.045134 0.849118
vt 0.048059 0.825504
vt 0.058601 0.826000
vt 0.004275 0.826281
vt 0.014817 0.826777
vt 0.017742 0.803163
vt 0.022474 0.812610
vt 0.044545 0.803164
vt 0.038962 0.812105
vt 0.043097 0.826448
vt 0.037267 0.836544
vt 0.025608 0.836542
vt 0.019780 0.826445
vt 0.025611 0.816349
vt 0.037270 0.816351
vt 0.057721 0.867049
vt 0.057721 0.852085
vt 0.061040 0.852085
vt 0.061040 0.867049
vt 0.084160 0.827116
vt 0.069196 0.827116
vt 0.065088 0.822633
vt 0.065088 0.807311
vt 0.069196 0.802828
vt 0.084160 0.802828
vt 0.069197 0.802428
vt 0.084160 0.802428
vt 0.084160 0.826717
vt 0.069197 0.826717
vt 0.065088 0.822233
vt 0.065088 0.806912
vt 0.061040 0.873130
vt 0.057721 0.873130
vt 0.061040 0.873130
vt 0.017645 0.852347
vt 0.017645 0.872788
vt 0.005176 0.872788
vt 0.005176 0.852347
vt 0.055052 0.852347
vt 0.055052 0.872788
vt 0.042583 0.872788
vt 0.042583 0.852347
vt 0.030114 0.852347
vt 0.030114 0.872788
s 1
g wheel_low_textures
usemtl textures
f 3/1/1 4/2/2 16/3/3 14/4/4
f 18/5/5 5/6/6 6/7/7 20/8/8
f 28/9/9 27/10/10 8/11/11 23/12/12
f 6/7/7 7/13/13 21/14/14 20/8/8
f 1/15/15 2/16/16 12/17/17 10/18/18
f 4/2/2 5/6/6 18/5/5 16/3/3
f 12/17/17 2/16/16 3/1/1 14/4/4
f 10/18/18 12/17/17 11/19/19 9/20/20
f 12/17/17 14/4/4 13/21/21 11/19/19
f 14/4/4 16/3/3 15/22/22 13/21/21
f 16/3/3 18/5/5 17/23/23 15/22/22
f 18/5/5 20/8/8 19/24/24 17/23/23
f 19/24/24 30/25/25 29/26/26 22/27/27 26/28/28 9/20/20 11/19/19 13/21/21 15/22/22 17/23/23
f 28/9/9 23/12/12 22/27/27 29/26/26
f 25/29/29 10/18/18 9/20/20 26/28/28
f 24/30/30 1/15/15 10/18/18 25/29/29
f 8/11/11 24/30/30 25/29/29 23/12/12
f 23/12/12 25/29/29 26/28/28 22/27/27
f 21/14/14 7/13/13 27/10/10 28/9/9
f 3/31/1 2/32/16 1/33/15 24/34/30 8/35/11 27/36/10 7/37/13 6/38/7 5/39/6 4/40/2
f 21/14/14 28/9/9 29/26/26 30/25/25
f 20/8/8 21/14/14 30/25/25 19/24/24
f 34/41/31 35/42/32 32/43/33 31/44/34
f 31/44/34 32/43/33 42/45/35 33/46/36
f 36/47/37 37/48/38 35/42/32 34/41/31
f 38/49/39 39/50/40 37/48/38 36/47/37
f 40/51/41 41/52/42 39/50/40 38/49/39
f 33/46/36 42/45/35 41/52/42 40/51/41
f 42/53/35 32/54/33 35/55/32 37/56/38 39/57/40 41/58/42
f 47/59/43 46/60/43 43/61/43 44/62/43
f 45/63/44 51/64/44 52/65/44 53/66/44 44/67/44 43/68/44
f 49/69/45 48/70/45 46/71/45 47/72/45 54/73/45 50/74/45
f 51/59/46 45/60/46 48/61/46 49/62/46
f 49/62/47 50/75/47 52/76/47 51/59/47
f 44/62/48 53/77/48 54/76/48 47/59/48
f 58/78/45 59/79/45 56/80/46 55/81/46
f 55/82/46 56/83/46 62/84/44 57/85/44
f 60/86/43 61/87/43 59/79/45 58/78/45
f 57/85/44 62/84/44 61/87/43 60/86/43
